<?xml version="1.0" standalone="no"?>
<!DOCTYPE svg PUBLIC "-//W3C//DTD SVG 20010904//EN"
 "http://www.w3.org/TR/2001/REC-SVG-20010904/DTD/svg10.dtd">
<svg version="1.0" xmlns="http://www.w3.org/2000/svg"
 width="191.000000pt" height="211.000000pt" viewBox="0 0 191.000000 211.000000"
 preserveAspectRatio="xMidYMid meet">

<g transform="translate(0.000000,211.000000) scale(0.100000,-0.100000)"
fill="#000000" stroke="none">
<path d="M1006 2071 c-4 -5 -2 -12 3 -15 5 -4 12 -2 15 3 4 5 2 12 -3 15 -5 4
-12 2 -15 -3z"/>
<path d="M1710 2050 c-9 -6 -10 -10 -3 -10 6 0 15 5 18 10 8 12 4 12 -15 0z"/>
<path d="M833 2035 c0 -8 4 -12 9 -9 5 3 6 10 3 15 -9 13 -12 11 -12 -6z"/>
<path d="M1119 1987 c6 -8 7 -18 3 -22 -4 -5 -1 -5 6 -1 10 6 10 11 1 22 -6 8
-14 14 -16 14 -3 0 0 -6 6 -13z"/>
<path d="M755 1980 c-3 -6 1 -7 9 -4 18 7 21 14 7 14 -6 0 -13 -4 -16 -10z"/>
<path d="M1180 1911 c-10 -20 4 -41 17 -27 4 3 1 6 -5 6 -6 0 -9 7 -6 15 4 8
11 12 17 8 6 -3 7 -1 3 5 -10 16 -14 15 -26 -7z"/>
<path d="M584 1835 c-10 -8 -14 -15 -8 -15 6 0 17 7 24 15 16 19 9 19 -16 0z"/>
<path d="M1611 1773 c0 -46 2 -83 7 -83 4 0 6 26 4 57 -5 101 -9 111 -11 26z"/>
<path d="M1334 1798 c-4 -7 -4 -10 1 -6 4 4 16 3 26 -3 11 -5 19 -7 19 -5 0 3
-9 10 -19 16 -15 7 -22 7 -27 -2z"/>
<path d="M515 1789 c-4 -6 -5 -12 -2 -15 2 -3 7 2 10 11 7 17 1 20 -8 4z"/>
<path d="M456 1741 c-19 -7 -18 -8 4 -14 13 -3 26 -4 29 -2 2 3 -1 5 -8 5 -7
0 -9 5 -6 10 7 11 7 11 -19 1z"/>
<path d="M1430 1729 c0 -6 -6 -7 -12 -3 -7 4 -6 -1 4 -11 9 -9 21 -14 27 -11
15 10 14 23 -4 30 -8 3 -15 1 -15 -5z"/>
<path d="M405 1700 c-10 -11 -16 -22 -13 -25 3 -3 13 6 22 20 20 30 16 32 -9
5z"/>
<path d="M823 1693 c4 -6 2 -13 -5 -15 -8 -3 -7 -6 3 -10 8 -3 25 3 38 13 13
11 18 19 13 19 -6 0 -14 -5 -17 -10 -5 -8 -12 -7 -23 2 -10 8 -13 8 -9 1z"/>
<path d="M1050 1688 c0 -6 3 -8 7 -5 3 4 11 2 18 -3 8 -7 12 -6 12 3 0 7 -9
14 -19 14 -10 1 -18 -3 -18 -9z"/>
<path d="M420 1670 c-6 -11 -8 -20 -6 -20 3 0 10 9 16 20 6 11 8 20 6 20 -3 0
-10 -9 -16 -20z"/>
<path d="M783 1668 c-12 -15 -13 -49 -2 -42 5 2 5 12 2 22 -6 15 -5 16 13 2
17 -14 18 -13 7 1 -7 9 -10 19 -6 22 3 4 4 7 1 7 -3 0 -10 -6 -15 -12z"/>
<path d="M1490 1671 c0 -6 5 -13 12 -17 7 -4 8 -3 4 4 -4 7 -2 12 3 12 6 0 11
-6 11 -13 0 -7 9 -18 19 -24 16 -10 19 -9 17 3 -1 8 -6 13 -10 12 -4 -2 -12 5
-17 15 -10 18 -39 24 -39 8z"/>
<path d="M354 1654 c-18 -14 -18 -15 4 -4 12 6 22 13 22 15 0 8 -5 6 -26 -11z"/>
<path d="M1067 1659 c7 -7 15 -10 18 -7 3 3 -2 9 -12 12 -14 6 -15 5 -6 -5z"/>
<path d="M1612 1650 c0 -14 2 -19 5 -12 2 6 2 18 0 25 -3 6 -5 1 -5 -13z"/>
<path d="M1630 1641 c0 -6 4 -13 10 -16 6 -3 7 1 4 9 -7 18 -14 21 -14 7z"/>
<path d="M730 1606 c-6 -9 -10 -21 -7 -28 4 -9 6 -7 6 4 1 9 7 18 14 21 6 2 9
7 6 11 -3 4 -12 0 -19 -8z"/>
<path d="M1132 1602 c6 -7 14 -9 17 -5 4 4 10 11 14 14 5 4 -3 6 -16 5 -20 -1
-23 -4 -15 -14z"/>
<path d="M1220 1606 c7 -7 13 -7 20 0 6 6 3 10 -10 10 -13 0 -16 -4 -10 -10z"/>
<path d="M263 1563 c1 -17 4 -19 14 -11 7 6 13 16 13 22 0 6 -4 5 -9 -3 -7
-11 -9 -11 -14 0 -3 8 -4 4 -4 -8z"/>
<path d="M908 1562 c-16 -7 -28 -21 -28 -30 1 -15 2 -15 15 2 8 11 15 16 15
11 0 -5 6 0 14 11 12 16 15 17 21 4 3 -9 14 -16 25 -17 17 -2 18 1 10 17 -11
21 -32 22 -72 2z"/>
<path d="M1221 1558 c-1 -29 13 -45 25 -27 4 7 3 9 -4 5 -6 -4 -12 5 -15 21
l-4 28 -2 -27z"/>
<path d="M233 1563 c-17 -6 -17 -20 0 -20 8 0 14 6 14 14 0 7 -1 13 -1 12 -1
0 -7 -3 -13 -6z"/>
<path d="M690 1559 c0 -5 5 -7 10 -4 6 3 10 8 10 11 0 2 -4 4 -10 4 -5 0 -10
-5 -10 -11z"/>
<path d="M1659 1548 c12 -16 11 -18 -3 -18 -18 0 -22 -25 -6 -35 8 -5 7 -11
-1 -21 -9 -11 -8 -15 6 -20 10 -4 20 -1 25 6 5 7 21 18 36 24 l27 12 -26 17
c-15 10 -27 13 -27 7 0 -6 -5 -8 -10 -5 -6 4 -8 10 -5 15 3 4 -3 14 -13 21
-15 13 -16 12 -3 -3z m27 -47 c5 1 16 1 24 -1 11 -1 9 -4 -5 -9 -22 -9 -55 3
-55 21 0 7 4 7 14 -1 8 -6 18 -11 22 -10z"/>
<path d="M191 1527 c-8 -10 -7 -14 2 -14 8 0 14 6 14 14 0 7 -1 13 -2 13 -2 0
-8 -6 -14 -13z"/>
<path d="M600 1530 c-9 -6 -10 -10 -3 -10 6 0 15 5 18 10 8 12 4 12 -15 0z"/>
<path d="M650 1525 c-7 -8 -16 -13 -20 -10 -8 5 -57 -30 -77 -55 -11 -13 -12
-13 -13 0 -1 12 -3 12 -14 -2 -7 -10 -19 -18 -27 -18 -11 0 -11 2 1 10 9 6 10
10 3 10 -23 0 -24 -20 -1 -29 13 -6 19 -10 13 -11 -52 -8 -55 -7 -51 17 3 13
1 21 -4 18 -5 -3 -7 -18 -5 -33 2 -16 0 -35 -5 -42 -7 -12 -11 -9 -18 10 -9
23 -9 23 -14 2 -4 -12 -11 -22 -16 -22 -6 0 -8 9 -5 20 4 14 0 20 -11 20 -11
0 -15 -8 -14 -24 1 -14 5 -23 9 -20 3 2 4 -30 2 -72 -3 -45 0 -80 6 -88 11
-13 5 -26 -11 -26 -4 0 -9 35 -10 78 -2 72 -2 73 -5 17 -3 -51 -9 -66 -38
-100 l-34 -40 -1 38 c0 23 -7 44 -20 57 -24 24 -40 26 -40 5 0 -8 9 -15 20
-15 17 0 20 -7 20 -40 0 -29 -4 -40 -15 -40 -11 0 -15 -12 -16 -42 l-1 -43 -8
35 c-5 19 -7 37 -5 39 2 2 -2 10 -10 18 -11 10 -22 11 -47 4 l-33 -9 35 -1
c29 -1 36 -5 36 -21 0 -18 -7 -20 -78 -20 -72 0 -78 2 -78 21 0 11 -4 18 -8
15 -5 -3 -10 18 -11 46 -1 33 2 54 11 59 10 7 10 9 1 9 -7 0 -13 12 -13 26 0
14 -7 32 -15 40 -8 9 -15 11 -15 5 0 -5 5 -13 10 -16 7 -5 9 -89 4 -258 -13
-545 -13 -871 2 -894 8 -12 14 -28 14 -36 0 -16 51 -63 89 -83 38 -20 1613
-21 1660 -1 17 7 28 16 24 20 -3 4 1 7 10 7 19 0 58 50 77 98 10 26 11 143 6
584 -4 303 -9 555 -12 559 -3 5 -1 9 4 9 13 0 7 43 -6 48 -7 2 -12 9 -12 16 0
16 -42 56 -58 56 -7 0 -2 -10 9 -21 17 -17 19 -23 8 -31 -11 -8 -11 -9 1 -5 8
2 14 10 12 16 -1 7 2 10 7 6 7 -4 7 -14 0 -29 -14 -30 -69 -35 -69 -6 0 10 10
20 22 23 12 4 20 9 16 12 -11 11 -58 -18 -58 -37 0 -10 -7 -18 -15 -18 -12 0
-15 -14 -15 -62 l-1 -63 -39 45 -39 45 -1 -42 0 -43 -40 0 c-33 0 -40 3 -40
20 0 17 -7 20 -40 20 l-40 0 0 -64 c0 -57 3 -66 30 -95 17 -17 36 -29 42 -25
7 4 8 3 4 -5 -4 -6 0 -24 10 -39 16 -24 18 -47 16 -181 l-3 -154 -32 -41 c-17
-23 -41 -52 -53 -65 -16 -17 -23 -42 -28 -100 -10 -110 -10 -110 -16 -106 -4
2 -13 -4 -22 -13 -8 -9 -28 -26 -43 -37 -39 -28 -73 -58 -55 -49 9 4 12 3 7
-2 -5 -5 -13 -10 -18 -10 -5 -1 -12 -2 -17 -3 -17 -3 -62 -53 -56 -63 4 -7 2
-8 -4 -4 -6 4 -28 0 -48 -9 -29 -12 -81 -15 -254 -15 -211 0 -274 7 -292 34
-4 6 -8 8 -8 5 0 -3 -26 18 -58 47 -31 30 -80 71 -109 91 -58 42 -63 53 -63
136 0 62 -14 102 -32 91 -6 -4 -8 -3 -4 4 3 6 -4 19 -17 29 -13 10 -24 21 -25
25 -8 27 -15 37 -23 32 -5 -3 -6 -10 -3 -16 4 -7 2 -8 -5 -4 -9 6 -9 11 -1 21
7 9 7 21 0 39 -6 16 -9 90 -7 171 1 79 -1 138 -5 132 -12 -19 -9 -2 6 35 15
35 46 69 46 50 0 -6 -4 -12 -9 -14 -5 -1 -11 -10 -13 -18 -2 -8 -7 -18 -13
-22 -5 -4 -6 -11 -1 -15 5 -4 11 -2 14 6 3 8 22 33 43 56 34 37 39 48 39 92 0
27 -6 55 -12 61 -9 9 -10 15 -2 20 6 4 14 18 18 32 8 30 23 50 56 73 13 9 19
17 12 17 -6 0 -12 5 -12 11 0 6 7 8 16 5 9 -3 25 1 37 9 12 8 16 15 9 15 -7 0
-10 5 -7 10 4 6 10 8 14 5 5 -2 19 7 31 20 13 14 29 25 37 25 7 0 13 5 13 11
0 5 4 8 9 5 4 -3 16 3 26 14 10 11 16 20 13 20 -3 0 -11 -7 -18 -15z m-227
-186 c-14 -24 -19 -26 -26 -13 -6 10 -3 22 8 34 26 28 38 13 18 -21z m1442
-18 c-6 -21 -25 -29 -25 -11 0 6 5 10 10 10 6 0 10 8 10 17 0 9 3 14 6 10 3
-3 3 -15 -1 -26z m-85 -1 c0 -11 -4 -20 -10 -20 -5 0 -10 9 -10 20 0 11 5 20
10 20 6 0 10 -9 10 -20z m-1391 -181 c-6 -11 -20 -19 -36 -19 -14 0 -34 -10
-45 -22 -19 -22 -20 -22 -16 -3 4 23 51 47 74 38 13 -5 15 -2 10 15 -6 17 -4
21 8 16 12 -5 13 -10 5 -25z m1178 -14 c0 -7 -6 -12 -13 -12 -7 0 -11 4 -8 8
2 4 -4 10 -13 12 -10 3 -7 4 8 4 14 -1 26 -6 26 -12z m60 -117 c-3 -8 -6 -5
-6 6 -1 11 2 17 5 13 3 -3 4 -12 1 -19z m-1467 -13 c10 -13 9 -15 -9 -15 -12
0 -21 6 -21 15 0 8 4 15 9 15 5 0 14 -7 21 -15z"/>
<path d="M410 1350 c-6 -11 -8 -20 -6 -20 3 0 10 9 16 20 6 11 8 20 6 20 -3 0
-10 -9 -16 -20z"/>
<path d="M1013 1525 c0 -8 4 -12 9 -9 5 3 6 10 3 15 -9 13 -12 11 -12 -6z"/>
<path d="M1301 1524 c-18 -13 -25 -14 -31 -4 -5 7 -10 8 -14 2 -3 -5 5 -17 19
-26 21 -14 24 -14 19 -1 -4 8 -1 15 5 15 6 0 11 -6 11 -14 0 -8 3 -17 8 -19 4
-3 7 10 7 29 0 19 0 34 0 34 0 0 -11 -7 -24 -16z"/>
<path d="M560 1510 c-8 -5 -12 -12 -9 -15 4 -3 12 1 19 10 14 17 11 19 -10 5z"/>
<path d="M950 1510 c0 -5 5 -10 10 -10 6 0 10 5 10 10 0 6 -4 10 -10 10 -5 0
-10 -4 -10 -10z"/>
<path d="M1026 1505 c-11 -8 -14 -15 -7 -15 7 0 10 -4 7 -8 -2 -4 4 -8 14 -9
11 -1 22 2 25 8 3 5 -1 6 -9 3 -11 -4 -14 0 -11 15 5 25 5 24 -19 6z"/>
<path d="M816 1488 c-11 -10 -16 -21 -13 -25 4 -3 7 -1 7 5 0 7 5 12 11 12 5
0 7 -4 4 -10 -3 -6 1 -7 10 -3 12 4 13 8 5 13 -8 5 -8 9 3 13 8 3 19 1 25 -5
6 -6 12 -6 16 1 8 13 9 12 -24 15 -14 2 -34 -6 -44 -16z"/>
<path d="M158 1486 c-16 -5 -28 -13 -28 -17 0 -12 35 -4 48 11 12 13 13 13 8
-4 -6 -16 -4 -17 9 -6 8 7 15 14 15 15 0 9 -29 10 -52 1z"/>
<path d="M1076 1472 c-3 -5 1 -9 9 -9 8 0 12 4 9 9 -3 4 -7 8 -9 8 -2 0 -6 -4
-9 -8z"/>
<path d="M1721 1471 c-9 -6 -10 -11 -2 -15 6 -4 11 -2 11 3 0 6 5 11 11 11 5
0 8 -4 5 -8 -2 -4 5 -9 17 -9 21 -2 22 -1 3 13 -23 16 -26 17 -45 5z"/>
<path d="M96 1452 c-3 -5 1 -15 9 -22 8 -7 15 -17 15 -23 0 -5 -8 -2 -19 7
-17 15 -19 15 -25 1 -3 -9 -11 -13 -17 -9 -8 4 -9 3 -5 -5 6 -9 11 -9 22 0 9
7 14 8 14 1 0 -11 25 -10 36 1 4 3 1 14 -7 23 -8 10 -12 19 -11 21 2 3 1 7 -1
9 -3 3 -8 1 -11 -4z"/>
<path d="M1335 1450 c3 -5 12 -7 20 -3 11 4 14 0 9 -13 -5 -16 -4 -16 5 -4 7
10 11 11 11 3 0 -7 7 -10 16 -6 14 5 14 7 -2 16 -23 13 -66 18 -59 7z"/>
<path d="M1408 1453 c7 -3 16 -2 19 1 4 3 -2 6 -13 5 -11 0 -14 -3 -6 -6z"/>
<path d="M1450 1450 c0 -5 8 -14 18 -19 16 -10 16 -10 0 -11 -10 0 -18 5 -18
10 0 6 -4 10 -10 10 -5 0 -10 -7 -10 -15 0 -8 -6 -12 -14 -9 -28 11 -25 -15 4
-32 16 -10 30 -22 30 -26 0 -4 5 -8 11 -8 5 0 8 4 5 9 -3 5 2 12 11 15 14 6
15 9 4 15 -9 6 -10 11 -2 15 6 4 11 18 11 32 0 17 -5 24 -20 24 -11 0 -20 -4
-20 -10z m8 -68 c2 -7 -2 -10 -12 -6 -9 3 -16 11 -16 16 0 13 23 5 28 -10z"/>
<path d="M760 1440 c0 -5 -4 -9 -9 -7 -11 2 -111 -74 -111 -85 0 -4 5 -10 12
-14 8 -5 9 -2 4 11 -5 15 -4 16 9 5 22 -18 3 -35 -23 -21 -15 8 -23 8 -28 -1
-4 -7 -3 -8 4 -4 7 4 12 3 12 -3 0 -5 8 -12 18 -14 16 -4 16 -5 -1 -6 -10 0
-27 4 -37 9 -24 13 -37 -5 -18 -27 12 -15 11 -15 -9 -5 -19 11 -24 9 -33 -8
-6 -11 -9 -20 -8 -21 2 0 35 -2 73 -3 39 -2 54 -1 34 1 -30 3 -38 9 -42 29 -4
24 6 33 18 14 3 -5 17 -10 30 -10 18 0 23 4 19 15 -4 8 -2 21 3 28 5 6 8 22 7
35 -1 15 9 28 33 43 19 12 36 19 39 16 3 -3 -4 -10 -15 -16 -19 -11 -20 -41 0
-41 4 0 6 7 2 15 -3 10 -1 15 7 13 8 -2 14 10 16 30 1 17 1 32 -2 32 -2 0 -4
-4 -4 -10z m-180 -174 c0 -3 -4 -8 -10 -11 -5 -3 -10 -1 -10 4 0 6 5 11 10 11
6 0 10 -2 10 -4z"/>
<path d="M1050 1430 c0 -5 5 -10 10 -10 6 0 10 5 10 10 0 6 -4 10 -10 10 -5 0
-10 -4 -10 -10z"/>
<path d="M1094 1429 c-3 -6 -1 -16 5 -22 8 -8 14 -7 23 6 11 14 16 14 31 2 18
-13 17 -14 -4 -20 -17 -6 -19 -9 -8 -16 12 -8 12 -11 -1 -20 -11 -7 -12 -12
-3 -15 17 -7 4 -34 -13 -27 -8 3 -14 14 -14 24 0 10 -5 19 -11 19 -6 0 -9 7
-6 14 4 10 1 13 -9 9 -7 -3 -14 0 -14 6 0 6 -9 11 -20 11 -11 0 -20 5 -20 10
0 6 -4 10 -10 10 -5 0 -10 -9 -10 -20 0 -11 -5 -20 -11 -20 -7 0 -8 -7 -4 -17
4 -10 7 -25 8 -33 0 -8 4 -20 9 -26 13 -18 -38 -27 -76 -13 -26 10 -38 9 -64
-5 -34 -18 -107 -22 -117 -6 -3 6 -17 10 -30 10 -16 0 -22 -5 -21 -17 3 -16
20 -18 194 -18 106 0 192 -3 192 -7 0 -12 35 -9 47 3 8 8 13 8 17 0 11 -16
171 -14 185 2 13 16 -4 37 -29 37 -9 0 -21 5 -28 12 -8 8 -15 8 -26 -1 -11 -9
-16 -9 -22 0 -4 7 -3 9 3 6 6 -4 16 0 23 8 11 14 15 14 34 -2 16 -14 15 -11
-3 10 -24 27 -38 36 -26 17 6 -10 5 -11 -32 -15 -21 -2 -37 23 -33 54 1 7 -3
10 -9 6 -7 -3 -9 -24 -6 -48 l5 -42 -13 45 c-11 38 -11 46 0 53 11 7 9 13 -11
28 -27 21 -61 25 -72 8z m-24 -89 c0 -11 -4 -20 -10 -20 -5 0 -10 5 -10 10 0
6 -9 10 -20 10 -11 0 -20 5 -20 10 0 6 14 10 30 10 23 0 30 -4 30 -20z m80
-49 c0 -4 -24 -6 -52 -4 -78 7 -82 11 -10 12 34 1 62 -3 62 -8z m184 -19 c2
-4 -12 -6 -32 -4 -56 5 -62 10 -15 11 23 1 44 -3 47 -7z"/>
<path d="M1130 1410 c0 -5 5 -10 11 -10 5 0 7 5 4 10 -3 6 -8 10 -11 10 -2 0
-4 -4 -4 -10z"/>
<path d="M795 1396 c-11 -9 -15 -16 -9 -16 5 0 15 5 22 12 8 8 15 8 28 -3 15
-12 17 -12 12 1 -7 21 -30 23 -53 6z"/>
<path d="M30 1391 c0 -6 5 -11 11 -11 6 0 9 -9 6 -20 -3 -11 -1 -23 4 -26 5
-3 9 3 10 13 0 10 3 13 6 6 7 -18 51 -16 70 2 20 21 13 26 -39 29 -24 1 -49 5
-56 9 -6 5 -12 3 -12 -2z"/>
<path d="M1650 1390 c0 -5 18 -10 40 -10 22 0 40 5 40 10 0 6 -18 10 -40 10
-22 0 -40 -4 -40 -10z"/>
<path d="M1210 1368 c0 -17 27 -44 36 -35 3 3 -3 16 -15 28 -16 18 -21 19 -21
7z"/>
<path d="M1598 1368 c9 -9 15 -9 24 0 9 9 7 12 -12 12 -19 0 -21 -3 -12 -12z"/>
<path d="M810 1358 c-79 -12 -110 -20 -110 -27 0 -25 64 -44 72 -21 2 5 18 10
36 12 33 2 57 20 50 35 -1 5 -23 5 -48 1z"/>
<path d="M10 1346 c0 -2 8 -10 18 -17 15 -13 16 -12 3 4 -13 16 -21 21 -21 13z"/>
<path d="M930 1323 c0 -13 5 -23 10 -23 13 0 13 11 0 30 -8 12 -10 11 -10 -7z"/>
<path d="M1470 1330 c0 -6 5 -10 11 -10 5 0 7 -4 4 -10 -3 -5 -1 -10 4 -10 17
0 13 27 -4 34 -8 3 -15 1 -15 -4z"/>
<path d="M60 1310 c0 -5 20 -10 45 -10 25 0 45 5 45 10 0 6 -20 10 -45 10 -25
0 -45 -4 -45 -10z"/>
<path d="M1595 1310 c-3 -5 3 -10 15 -10 12 0 18 5 15 10 -3 6 -10 10 -15 10
-5 0 -12 -4 -15 -10z"/>
<path d="M212 1280 c0 -14 2 -19 5 -12 2 6 2 18 0 25 -3 6 -5 1 -5 -13z"/>
<path d="M653 1263 c9 -2 23 -2 30 0 6 3 -1 5 -18 5 -16 0 -22 -2 -12 -5z"/>
<path d="M50 1190 c0 -16 -1 -33 -2 -37 -2 -5 7 -9 20 -11 20 -3 22 1 22 37 0
34 -3 41 -20 41 -16 0 -20 -7 -20 -30z"/>
<path d="M130 1199 c0 -15 7 -19 40 -19 22 0 40 4 40 9 0 5 -18 13 -40 19 -36
9 -40 8 -40 -9z"/>
<path d="M904 1120 c-329 -5 -353 -6 -373 -24 -21 -19 -25 -64 -7 -77 4 -4 3
-10 -3 -13 -6 -4 -11 -3 -11 2 0 24 -30 18 -56 -10 -16 -17 -22 -27 -14 -23
13 8 13 6 1 -8 -7 -9 -11 -24 -7 -32 5 -13 68 -15 507 -15 466 0 503 1 515 18
16 20 18 36 4 27 -5 -3 -7 0 -4 8 6 18 -24 50 -38 41 -7 -4 -8 -2 -4 4 8 13
-48 75 -58 65 -4 -4 -4 0 -1 9 5 12 -2 18 -27 24 -45 10 -27 10 -424 4z"/>
<path d="M490 1040 c0 -5 5 -10 10 -10 6 0 10 5 10 10 0 6 -4 10 -10 10 -5 0
-10 -4 -10 -10z"/>
<path d="M540 791 c-103 -6 -105 -7 -108 -31 -3 -26 19 -57 91 -131 l38 -38
391 -1 391 0 43 47 c24 25 40 51 37 56 -3 6 -1 7 5 3 15 -9 42 33 42 65 0 15
-7 29 -16 33 -19 7 -764 4 -914 -3z"/>
<path d="M574 458 c-7 -12 22 -41 117 -115 l54 -43 206 0 206 0 31 30 c18 17
34 30 37 30 19 0 107 88 101 99 -10 16 -742 15 -752 -1z"/>
</g>
</svg>
